<svg width="420" height="436" viewBox="0 0 420 436" fill="none" xmlns="http://www.w3.org/2000/svg">
<g id="cook 1">
<g id="fork">
<path id="Vector" d="M95.3522 152.445L79.4324 162.898L245.229 415.97L261.149 405.517L95.3522 152.445Z" fill="#A2A2A1"/>
<path id="Vector_2" d="M57.4515 57.2077L94.2848 113.43C94.9981 114.519 95.2501 115.847 94.9855 117.121C94.7208 118.396 93.9612 119.514 92.8737 120.228C91.7861 120.942 90.4598 121.194 89.1864 120.929C87.913 120.664 86.7969 119.904 86.0837 118.815L43.7393 54.1806C37.9917 53.7001 32.2146 54.65 26.9224 56.9456L73.0583 127.367C73.7711 128.456 74.0228 129.784 73.7581 131.058C73.4933 132.333 72.7337 133.45 71.6464 134.164C70.5591 134.878 69.233 135.13 67.9599 134.866C66.6867 134.601 65.5707 133.841 64.8572 132.752L18.7212 62.3305C14.5094 66.2753 11.3374 71.2015 9.48759 76.6706L51.8319 141.305C52.5447 142.394 52.7964 143.721 52.5316 144.996C52.2669 146.27 51.5073 147.387 50.42 148.101C49.3326 148.815 48.0066 149.068 46.7335 148.803C45.4603 148.538 44.3443 147.778 43.6308 146.69L6.79749 90.4676C5.85145 106.144 10.9568 124.724 22.1455 141.803C42.9403 173.544 76.8607 188.071 97.9089 174.251C118.957 160.431 119.162 123.496 98.3677 91.7545C87.179 74.676 72.1904 62.585 57.4515 57.2077Z" fill="#A2A2A1"/>
</g>
<g id="spoon">
<path id="Vector_3" d="M166.731 117.825H147.692V420.472H166.731V117.825Z" fill="#A2A2A1"/>
<path id="Vector_4" d="M156.923 137.462C182.094 137.462 202.5 106.69 202.5 68.731C202.5 30.7719 182.094 0 156.923 0C131.752 0 111.346 30.7719 111.346 68.731C111.346 106.69 131.752 137.462 156.923 137.462Z" fill="#A2A2A1"/>
<path id="Vector_5" d="M156.923 125.282C177.634 125.282 194.423 99.9631 194.423 68.731C194.423 37.4988 177.634 12.1802 156.923 12.1802C136.212 12.1802 119.423 37.4988 119.423 68.731C119.423 99.9631 136.212 125.282 156.923 125.282Z" fill="#A2A2A1"/>
</g>
<g id="plate">
<path id="Vector_6" d="M210 436C325.98 436 420 430.599 420 423.937C420 417.275 325.98 411.875 210 411.875C94.0202 411.875 0 417.275 0 423.937C0 430.599 94.0202 436 210 436Z" fill="#A2A2A1"/>
</g>
<g id="hat">
<path id="Vector_7" d="M334.193 423.76C255.493 409.559 174.891 409.559 96.1916 423.76C94.9415 423.987 93.6569 423.936 92.4285 423.612C91.2 423.287 90.0577 422.697 89.0821 421.882C88.1065 421.067 87.3214 420.048 86.7822 418.896C86.243 417.745 85.9629 416.488 85.9615 415.216V307.268H344.423V415.216C344.422 416.488 344.142 417.745 343.602 418.896C343.063 420.048 342.278 421.067 341.302 421.882C340.327 422.697 339.185 423.287 337.956 423.612C336.728 423.936 335.443 423.987 334.193 423.76V423.76Z" fill="#F1F4FF"/>
<path id="Vector_8" d="M320.769 227.563C314.801 227.558 308.875 228.551 303.234 230.501C295.006 212.635 281.858 197.489 265.335 186.841C248.811 176.193 229.596 170.484 209.945 170.385C190.294 170.285 171.022 175.8 154.392 186.28C137.761 196.76 124.462 211.772 116.054 229.554C107.775 227.229 99.0595 226.93 90.641 228.682C82.2225 230.434 74.3479 234.186 67.6805 239.621C61.013 245.057 55.7481 252.017 52.3291 259.915C48.9101 267.814 47.4373 276.419 48.0347 285.006C48.632 293.594 51.2821 301.911 55.7616 309.259C60.2412 316.607 66.419 322.769 73.7746 327.227C81.1303 331.685 89.4484 334.308 98.0282 334.875C106.608 335.442 115.198 333.936 123.075 330.484C132.543 344.928 145.474 356.766 160.688 364.918C175.902 373.07 192.914 377.276 210.169 377.151C227.425 377.027 244.375 372.577 259.47 364.206C274.565 355.836 287.325 343.813 296.584 329.235C303.818 332.891 311.784 334.859 319.887 334.992C327.989 335.125 336.016 333.419 343.365 330.002C350.715 326.585 357.196 321.546 362.322 315.264C367.448 308.981 371.086 301.617 372.963 293.726C374.841 285.834 374.908 277.619 373.161 269.698C371.414 261.776 367.897 254.354 362.875 247.988C357.852 241.621 351.455 236.476 344.163 232.939C336.87 229.402 328.873 227.564 320.769 227.563V227.563Z" fill="#F1F4FF"/>
<path id="Vector_9" d="M106.731 273.769H105.577C105.538 258.39 108.937 243.197 115.527 229.304L116.57 229.799C110.054 243.537 106.692 258.561 106.731 273.769V273.769Z" fill="#3F3D56"/>
<path id="Vector_10" d="M313.269 273.769H312.115C312.151 258.911 308.943 244.225 302.715 230.739L303.763 230.255C310.061 243.893 313.305 258.744 313.269 273.769V273.769Z" fill="#3F3D56"/>
<path id="Vector_11" d="M86.1007 357.5L85.8224 356.378C86.148 356.298 118.94 348.235 166.996 344.234C211.35 340.542 278.161 339.651 344.564 356.379L344.282 357.499C278.042 340.813 211.377 341.7 167.116 345.384C119.146 349.375 86.4255 357.419 86.1007 357.5Z" fill="#3F3D56"/>
<path id="Vector_12" d="M86.1007 373.094L85.8224 371.973C86.148 371.892 118.94 363.829 166.996 359.829C211.35 356.136 278.161 355.246 344.564 371.973L344.282 373.094C278.042 356.408 211.377 357.295 167.116 360.978C119.146 364.97 86.4255 373.013 86.1007 373.094Z" fill="#3F3D56"/>
<path id="Vector_13" d="M86.1007 388.688L85.8224 387.567C86.148 387.486 118.94 379.424 166.996 375.423C211.35 371.731 278.161 370.84 344.564 387.568L344.282 388.688C278.042 372.002 211.377 372.89 167.116 376.572C119.146 380.564 86.4255 388.608 86.1007 388.688Z" fill="#3F3D56"/>
</g>
<g id="man">
<path id="Vector_14" d="M298.423 303.893L284.444 299.134L297.864 230.56L288.638 229.72C279.641 236.631 267.661 239.34 252.292 237.278L276.896 274.504L264.35 283.369L224.33 235.312C222.526 233.146 221.538 230.415 221.538 227.595C221.538 224.98 222.388 222.437 223.958 220.348C225.529 218.259 227.735 216.738 230.245 216.014L272.981 203.69L323.026 209.288C330.593 220.836 330.888 228.867 319.371 231.184L298.423 303.893Z" fill="#2F2E41"/>
<path id="Vector_15" d="M284.116 330.569C282.671 330.478 281.267 330.046 280.02 329.31C278.773 328.574 277.717 327.553 276.938 326.331C276.158 325.11 275.678 323.721 275.535 322.279C275.392 320.836 275.591 319.381 276.116 318.03L283.066 300.139C286.596 293.444 291.441 294.282 297.162 300.139L299.957 308.349C300.188 309.025 300.279 309.741 300.226 310.453C300.173 311.165 299.977 311.86 299.649 312.494L292.875 325.605C292.054 327.194 290.788 328.51 289.233 329.392C287.677 330.273 285.899 330.682 284.116 330.569V330.569Z" fill="#2F2E41"/>
<path id="Vector_16" d="M266.049 307.141C264.604 307.05 263.201 306.618 261.954 305.882C260.707 305.146 259.651 304.125 258.871 302.904C258.092 301.682 257.612 300.294 257.469 298.851C257.326 297.409 257.525 295.953 258.05 294.602L265 276.711C268.53 270.016 273.375 270.855 279.095 276.711L281.891 284.921C282.121 285.598 282.213 286.313 282.16 287.025C282.107 287.738 281.91 288.432 281.583 289.066L274.809 302.177C273.988 303.766 272.722 305.082 271.167 305.964C269.611 306.845 267.833 307.254 266.049 307.141Z" fill="#2F2E41"/>
<path id="Vector_17" d="M274.938 138.195C283.585 138.195 290.595 131.177 290.595 122.521C290.595 113.864 283.585 106.846 274.938 106.846C266.292 106.846 259.282 113.864 259.282 122.521C259.282 131.177 266.292 138.195 274.938 138.195Z" fill="#FFB9B9"/>
<path id="Vector_18" d="M299.262 144.633L277.734 155.828L273.261 135.676L288.078 126.439L299.262 144.633Z" fill="#FFB9B9"/>
<path id="Vector_19" d="M325.263 212.087C303.782 205.592 284.291 202.226 270.186 207.329C275.048 193.636 266.074 172.726 256.207 151.35C260.464 145.778 267.252 143.62 274.938 142.673C283.348 148.786 289.212 144.863 293.67 135.396C303.394 135.005 312.764 138.452 321.908 144.352C314.76 167.274 316.047 189.845 325.263 212.087Z" fill="#3F3D56"/>
<path id="Vector_20" d="M269.906 210.687C266.514 212.689 263.383 216.061 260.4 220.204C255.359 217.115 250.922 213.597 247.428 209.413C244.981 206.447 243.313 202.916 242.575 199.141C241.836 195.366 242.05 191.466 243.198 187.795L252.753 156.709C253.546 154.128 255.088 151.84 257.182 150.136L258.443 149.111L271.024 172.902L258.443 196.413C260.039 200.695 264.74 205.642 269.906 210.687Z" fill="#3F3D56"/>
<path id="Vector_21" d="M274.236 234.388C273.096 234.909 271.85 235.157 270.597 235.112C269.344 235.067 268.119 234.731 267.018 234.131C265.918 233.53 264.972 232.682 264.255 231.652C263.539 230.622 263.071 229.439 262.89 228.198L260.811 213.946L268.08 210.028L277.305 222.118C278.042 223.084 278.552 224.204 278.798 225.394C279.043 226.584 279.017 227.814 278.722 228.993C278.428 230.172 277.871 231.27 277.094 232.204C276.318 233.138 275.341 233.884 274.236 234.388V234.388Z" fill="#FFB9B9"/>
<path id="Vector_22" d="M290.735 121.835L288.062 121.914L280.646 111.398C271.145 112.382 263.359 116.514 256.77 122.845L256.102 118.386C255.465 114.134 256.48 109.799 258.938 106.274C261.395 102.748 265.109 100.299 269.315 99.4307H269.315C271.525 98.9747 273.803 98.9691 276.015 99.4141C278.226 99.8592 280.326 100.746 282.187 102.021C284.049 103.297 285.635 104.934 286.85 106.837C288.065 108.74 288.885 110.868 289.261 113.095L290.735 121.835Z" fill="#2F2E41"/>
<path id="Vector_23" d="M260.67 220.21C260.15 219.068 259.903 217.82 259.947 216.566C259.992 215.312 260.328 214.085 260.927 212.983C261.527 211.882 262.375 210.934 263.404 210.217C264.432 209.5 265.614 209.032 266.854 208.851L281.089 206.769L285.003 214.046L272.926 223.282C271.962 224.02 270.843 224.53 269.654 224.776C268.466 225.022 267.237 224.996 266.059 224.701C264.882 224.405 263.786 223.848 262.853 223.071C261.92 222.293 261.174 221.315 260.67 220.21V220.21Z" fill="#FFB9B9"/>
<path id="Vector_24" d="M327.975 207.246C314.432 208.299 299.645 212.527 284.165 218.525C283.972 213.924 282.306 209.508 279.412 205.929C293.471 202.222 306.23 197.871 314.08 191.095L309.327 155.268L319.671 143.513L321.456 144.445C322.938 145.216 324.241 146.29 325.282 147.597C326.322 148.905 327.077 150.417 327.496 152.036C331.863 169.045 333.803 185.341 332.47 200.678C332.642 202.132 332.281 203.599 331.455 204.807C330.628 206.015 329.392 206.882 327.975 207.246V207.246Z" fill="#3F3D56"/>
</g>
<g id="left">
<path id="Vector_25" d="M55.3188 420.536C42.7232 428.423 30.1276 428.42 17.5319 420.527C17.1332 420.281 16.8094 419.93 16.5957 419.513C16.3819 419.096 16.2865 418.628 16.3197 418.161L20.2499 367.01H52.0387L56.5288 418.143C56.5675 418.615 56.475 419.088 56.2614 419.511C56.0479 419.933 55.7216 420.288 55.3188 420.536V420.536Z" fill="#3F3D56"/>
<path id="Vector_26" d="M35.9977 373.375C44.8568 373.375 52.0386 370.784 52.0386 367.589C52.0386 364.393 44.8568 361.802 35.9977 361.802C27.1385 361.802 19.9567 364.393 19.9567 367.589C19.9567 370.784 27.1385 373.375 35.9977 373.375Z" fill="#3F3D56"/>
<path id="Vector_27" d="M48.5708 365.635C40.2122 371.522 32.1205 371.522 24.2958 365.635V356.377H48.5708V365.635Z" fill="#A2A2A1"/>
<path id="Vector_28" d="M36.4333 361.006C43.1367 361.006 48.5708 358.934 48.5708 356.377C48.5708 353.821 43.1367 351.748 36.4333 351.748C29.7299 351.748 24.2958 353.821 24.2958 356.377C24.2958 358.934 29.7299 361.006 36.4333 361.006Z" fill="#A2A2A1"/>
<path id="Vector_29" d="M37.0112 356.377C37.6497 356.377 38.1672 356.118 38.1672 355.799C38.1672 355.479 37.6497 355.22 37.0112 355.22C36.3728 355.22 35.8553 355.479 35.8553 355.799C35.8553 356.118 36.3728 356.377 37.0112 356.377Z" fill="#E6E6E6"/>
<path id="Vector_30" d="M42.4696 356.377C43.108 356.377 43.6256 356.118 43.6256 355.799C43.6256 355.479 43.108 355.22 42.4696 355.22C41.8312 355.22 41.3137 355.479 41.3137 355.799C41.3137 356.118 41.8312 356.377 42.4696 356.377Z" fill="#E6E6E6"/>
<path id="Vector_31" d="M39.7404 357.744C40.3788 357.744 40.8964 357.485 40.8964 357.165C40.8964 356.845 40.3788 356.586 39.7404 356.586C39.102 356.586 38.5845 356.845 38.5845 357.165C38.5845 357.485 39.102 357.744 39.7404 357.744Z" fill="#E6E6E6"/>
<path id="Vector_32" d="M28.8237 357.744C29.4621 357.744 29.9797 357.485 29.9797 357.165C29.9797 356.845 29.4621 356.586 28.8237 356.586C28.1853 356.586 27.6678 356.845 27.6678 357.165C27.6678 357.485 28.1853 357.744 28.8237 357.744Z" fill="#E6E6E6"/>
<path id="Vector_33" d="M31.5529 356.377C32.1913 356.377 32.7089 356.118 32.7089 355.799C32.7089 355.479 32.1913 355.22 31.5529 355.22C30.9145 355.22 30.397 355.479 30.397 355.799C30.397 356.118 30.9145 356.377 31.5529 356.377Z" fill="#E6E6E6"/>
<path id="Vector_34" d="M34.2821 358.427C34.9205 358.427 35.4381 358.168 35.4381 357.848C35.4381 357.528 34.9205 357.269 34.2821 357.269C33.6437 357.269 33.1262 357.528 33.1262 357.848C33.1262 358.168 33.6437 358.427 34.2821 358.427Z" fill="#E6E6E6"/>
</g>
<g id="right">
<path id="Vector_35" d="M404.357 420.536C391.762 428.423 379.166 428.42 366.571 420.527C366.172 420.281 365.848 419.93 365.634 419.513C365.421 419.096 365.325 418.628 365.358 418.161L369.288 367.01H401.077L405.567 418.143C405.606 418.615 405.514 419.088 405.3 419.511C405.086 419.933 404.76 420.288 404.357 420.536V420.536Z" fill="#3F3D56"/>
<path id="Vector_36" d="M385.036 373.375C393.895 373.375 401.077 370.784 401.077 367.589C401.077 364.393 393.895 361.802 385.036 361.802C376.177 361.802 368.995 364.393 368.995 367.589C368.995 370.784 376.177 373.375 385.036 373.375Z" fill="#3F3D56"/>
<path id="Vector_37" d="M397.609 365.635C389.251 371.522 381.159 371.522 373.334 365.635V356.377H397.609V365.635Z" fill="#A2A2A1"/>
<path id="Vector_38" d="M385.472 361.006C392.175 361.006 397.609 358.934 397.609 356.377C397.609 353.821 392.175 351.748 385.472 351.748C378.768 351.748 373.334 353.821 373.334 356.377C373.334 358.934 378.768 361.006 385.472 361.006Z" fill="#A2A2A1"/>
<path id="Vector_39" d="M386.05 356.377C386.688 356.377 387.206 356.118 387.206 355.799C387.206 355.479 386.688 355.22 386.05 355.22C385.411 355.22 384.894 355.479 384.894 355.799C384.894 356.118 385.411 356.377 386.05 356.377Z" fill="#E6E6E6"/>
<path id="Vector_40" d="M391.508 356.377C392.147 356.377 392.664 356.118 392.664 355.799C392.664 355.479 392.147 355.22 391.508 355.22C390.87 355.22 390.352 355.479 390.352 355.799C390.352 356.118 390.87 356.377 391.508 356.377Z" fill="#E6E6E6"/>
<path id="Vector_41" d="M388.779 357.744C389.417 357.744 389.935 357.485 389.935 357.165C389.935 356.845 389.417 356.586 388.779 356.586C388.141 356.586 387.623 356.845 387.623 357.165C387.623 357.485 388.141 357.744 388.779 357.744Z" fill="#E6E6E6"/>
<path id="Vector_42" d="M377.862 357.744C378.501 357.744 379.018 357.485 379.018 357.165C379.018 356.845 378.501 356.586 377.862 356.586C377.224 356.586 376.706 356.845 376.706 357.165C376.706 357.485 377.224 357.744 377.862 357.744Z" fill="#E6E6E6"/>
<path id="Vector_43" d="M380.591 356.377C381.23 356.377 381.747 356.118 381.747 355.799C381.747 355.479 381.23 355.22 380.591 355.22C379.953 355.22 379.435 355.479 379.435 355.799C379.435 356.118 379.953 356.377 380.591 356.377Z" fill="#E6E6E6"/>
<path id="Vector_44" d="M383.321 358.427C383.959 358.427 384.477 358.168 384.477 357.848C384.477 357.528 383.959 357.269 383.321 357.269C382.682 357.269 382.165 357.528 382.165 357.848C382.165 358.168 382.682 358.427 383.321 358.427Z" fill="#E6E6E6"/>
</g>
</g>
</svg>
