<svg id="svg" version="1.1" xmlns="http://www.w3.org/2000/svg" xmlns:xlink="http://www.w3.org/1999/xlink" width="150" height="100" viewBox="0, 0, 400,262"><g id="svgg"><path id="path0" d="M256.000 63.532 C 256.000 106.083,256.188 106.667,269.597 105.813 C 277.015 105.341,277.397 105.085,276.538 101.174 C 275.922 98.368,275.669 98.235,271.921 98.737 C 263.882 99.816,264.000 100.352,264.000 62.845 L 264.000 30.000 260.000 30.000 L 256.000 30.000 256.000 63.532 M72.344 32.041 C 60.607 34.364,54.702 40.658,54.176 51.407 C 53.587 63.456,57.959 67.339,77.790 72.383 C 94.356 76.596,99.000 79.829,99.000 87.146 C 99.000 100.330,74.153 103.633,59.444 92.405 C 56.892 90.457,54.711 89.006,54.599 89.182 C 54.487 89.357,53.562 90.826,52.545 92.447 L 50.695 95.394 53.998 97.947 C 72.054 111.904,103.713 107.564,106.864 90.699 C 109.427 76.982,103.304 70.561,82.897 65.563 C 62.879 60.660,56.431 52.622,65.107 43.386 C 71.231 36.867,92.315 37.649,98.091 44.610 C 99.752 46.611,100.349 46.373,102.408 42.886 C 103.937 40.298,104.016 39.616,102.874 38.851 C 92.686 32.025,83.163 29.901,72.344 32.041 M191.138 51.048 C 182.992 52.703,177.000 59.431,177.000 66.921 C 177.000 74.250,181.264 77.543,195.320 81.069 C 206.630 83.905,210.398 86.359,210.802 91.149 C 211.635 101.017,195.055 103.860,182.631 95.981 L 178.012 93.052 176.388 95.531 C 173.547 99.866,179.682 104.095,191.837 106.179 C 219.036 110.843,230.719 83.966,204.675 76.643 C 201.829 75.843,196.940 74.466,193.811 73.584 C 186.938 71.646,185.000 69.890,185.000 65.603 C 185.000 55.904,202.536 53.336,212.088 61.637 C 214.058 63.349,217.631 60.088,216.634 57.488 C 214.991 53.206,199.621 49.324,191.138 51.048 M298.270 51.043 C 294.230 51.851,287.031 54.786,284.145 56.802 C 283.020 57.587,283.072 58.180,284.445 60.276 L 286.101 62.803 291.948 59.788 C 305.404 52.848,317.993 58.417,317.998 71.311 L 318.000 75.123 313.250 74.311 C 293.722 70.976,280.000 77.352,280.000 89.762 C 280.000 105.672,300.076 112.458,314.522 101.431 C 318.187 98.634,319.000 98.335,319.000 99.784 C 319.000 103.239,321.913 106.000,325.557 106.000 C 329.287 106.000,330.957 99.965,327.585 98.671 C 326.463 98.240,326.100 94.655,325.830 81.314 C 325.308 55.575,317.654 47.168,298.270 51.043 M118.196 72.750 C 118.470 92.389,118.700 94.888,120.558 98.500 C 126.091 109.255,143.290 109.556,153.764 99.082 L 156.758 96.088 157.386 100.012 C 158.061 104.236,160.138 106.000,164.434 106.000 C 167.458 106.000,168.154 101.011,165.500 98.357 C 164.254 97.111,164.000 92.976,164.000 73.929 L 164.000 51.000 160.000 51.000 L 156.000 51.000 156.000 68.550 C 156.000 89.951,154.328 94.042,143.782 98.447 C 129.942 104.228,125.678 97.767,125.171 70.250 L 124.816 51.000 121.354 51.000 L 117.892 51.000 118.196 72.750 M314.750 80.159 C 317.887 81.120,318.000 81.341,318.000 86.500 C 318.000 98.650,297.561 105.885,290.085 96.381 C 280.859 84.652,296.296 74.500,314.750 80.159 M228.350 140.583 C 227.956 141.637,220.967 158.439,212.817 177.921 C 196.122 217.830,196.902 215.213,201.250 216.739 C 219.301 223.077,242.942 222.936,258.588 216.399 C 262.886 214.603,264.401 219.457,246.345 177.167 C 229.631 138.022,229.446 137.646,228.350 140.583 M28.000 155.500 L 28.000 159.000 42.000 159.000 L 56.000 159.000 56.000 194.500 L 56.000 230.000 60.000 230.000 L 64.000 230.000 64.000 194.500 L 64.000 159.000 78.000 159.000 L 92.000 159.000 92.000 155.500 L 92.000 152.000 60.000 152.000 L 28.000 152.000 28.000 155.500 M237.439 173.099 C 236.398 174.783,232.918 174.009,230.455 171.545 C 227.414 168.505,227.310 164.690,230.190 161.810 L 232.380 159.620 235.188 165.909 C 236.732 169.368,237.745 172.603,237.439 173.099 M107.297 172.002 C 86.367 176.371,78.000 203.870,92.292 221.312 C 103.521 235.015,129.911 233.675,137.492 219.016 C 139.811 214.531,133.154 213.554,129.189 217.797 C 118.014 229.760,99.369 224.845,94.496 208.651 L 93.096 204.000 117.548 204.000 L 142.000 204.000 141.990 198.750 C 141.959 181.903,124.468 168.418,107.297 172.002 M153.000 201.000 L 153.000 230.000 157.000 230.000 L 161.000 230.000 161.000 212.460 C 161.000 193.863,161.772 190.226,166.662 185.805 C 169.226 183.486,177.005 180.049,179.750 180.022 C 181.705 180.003,182.000 179.475,182.000 176.000 C 182.000 169.327,172.281 171.494,164.750 179.847 L 161.000 184.006 161.000 178.003 L 161.000 172.000 157.000 172.000 L 153.000 172.000 153.000 201.000 M289.764 176.932 C 279.514 180.257,274.314 189.905,278.456 197.915 C 280.245 201.375,284.098 203.262,295.729 206.375 C 309.151 209.967,311.631 211.977,310.035 217.972 C 307.993 225.647,294.456 227.270,283.598 221.142 L 278.042 218.007 276.326 220.624 C 271.522 227.957,299.625 234.550,309.895 228.500 C 318.045 223.700,320.518 213.937,315.137 207.809 C 312.052 204.295,309.372 203.185,292.881 198.587 C 286.086 196.692,284.775 195.290,285.185 190.352 C 285.873 182.071,296.674 179.456,307.544 184.939 C 313.481 187.933,315.849 187.503,315.968 183.409 C 316.088 179.285,297.031 174.575,289.764 176.932 M341.500 176.707 C 337.240 177.719,328.000 182.331,328.000 183.445 C 328.000 187.587,330.428 188.201,335.795 185.416 C 348.913 178.611,359.972 182.981,361.572 195.603 L 362.219 200.706 355.859 199.323 C 341.623 196.226,328.883 200.504,325.432 209.538 C 318.476 227.752,344.902 238.922,360.250 224.254 L 363.000 221.626 363.000 224.613 C 363.000 228.478,364.610 230.000,368.700 230.000 C 372.369 230.000,373.855 223.926,370.500 222.638 C 369.259 222.162,368.996 219.428,368.978 206.781 C 368.942 181.637,360.347 172.229,341.500 176.707 M124.972 181.600 C 129.242 184.426,134.000 191.998,134.000 195.967 C 134.000 197.943,133.442 198.000,114.000 198.000 C 91.197 198.000,91.754 198.271,96.102 189.289 C 101.318 178.514,114.859 174.908,124.972 181.600 M225.750 192.746 C 226.438 193.646,227.000 195.614,227.000 197.120 C 227.000 204.641,216.248 205.225,214.459 197.800 C 213.006 191.770,221.947 187.768,225.750 192.746 M249.429 202.571 C 251.061 204.204,251.511 208.688,250.235 210.600 C 246.077 216.827,236.248 211.738,238.910 204.737 C 240.391 200.840,246.450 199.593,249.429 202.571 M358.250 205.138 C 361.877 206.046,362.000 206.222,362.000 210.504 C 362.000 222.481,342.725 229.972,334.782 221.083 C 329.441 215.105,332.421 206.215,340.327 204.539 C 341.522 204.285,343.400 203.895,344.500 203.671 C 346.893 203.183,353.078 203.844,358.250 205.138 M192.200 220.200 C 182.480 229.920,231.938 237.185,256.469 229.640 C 266.962 226.413,268.000 225.714,268.000 221.878 C 268.000 218.110,265.310 218.079,254.500 221.722 C 242.603 225.732,217.820 225.718,204.735 221.695 C 194.806 218.642,193.869 218.531,192.200 220.200 " stroke="none" fill="#000000" fill-rule="evenodd"></path></g></svg>